# xmcd
#
# Track frame offsets:
# 150
# 2108
# 20840
# 36882
# 56825
# 63983
# 73926
# 77508
# 81235
# 94519
# 111357
# 124999
# 144182
# 160275
# 174574
# 193587
# 210795
# 219073
# 237159
# 253317
# 260304
# 268731
# 284828
# 308257
# 323935
#
# Disc length: 4595 seconds
#
#
# Revision: 0
# Processed by: cddbd v1.5.1PL0 Copyright (c) Steve Scherf et al.
# Submitted via: FreeRIP 2.941 
#
DISCID=6711f119
DTITLE=Cavaleiros do forro - O filme
DYEAR=2005
DGENRE=Country
TTITLE0=Abertura
TTITLE1=Alo
TTITLE2=se rei pra la
TTITLE3=va dar trabalho pra outro
TTITLE4=o esporte da mulher
TTITLE5=bebo,rico e brabo
TTITLE6=avise a ela
TTITLE7=mar de docura
TTITLE8=a vontade que eu tenho
TTITLE9=a musica do dia
TTITLE10=pra sempre
TTITLE11=acustico
TTITLE12=minha historia
TTITLE13=os outros
TTITLE14=voce vai ver
TTITLE15=abertura li
TTITLE16=frete
TTITLE17=ciume
TTITLE18=mulher eletricista
TTITLE19=doce desejo
TTITLE20=lolo
TTITLE21=penitencia
TTITLE22=homenagem vaqueiros
TTITLE23=sonhos de vaqueijada
TTITLE24=com a corda toda
EXTD=
EXTT0=
EXTT1=
EXTT2=
EXTT3=
EXTT4=
EXTT5=
EXTT6=
EXTT7=
EXTT8=
EXTT9=
EXTT10=
EXTT11=
EXTT12=
EXTT13=
EXTT14=
EXTT15=
EXTT16=
EXTT17=
EXTT18=
EXTT19=
EXTT20=
EXTT21=
EXTT22=
EXTT23=
EXTT24=
PLAYORDER=
